<?xml version="1.0" encoding="UTF-8"?>
<!DOCTYPE svg PUBLIC "-//W3C//DTD SVG 1.1//EN" "http://www.w3.org/Graphics/SVG/1.1/DTD/svg11.dtd">
<svg xmlns="http://www.w3.org/2000/svg" version="1.1" width="713px" height="569px" style="shape-rendering:geometricPrecision; text-rendering:geometricPrecision; image-rendering:optimizeQuality; fill-rule:evenodd; clip-rule:evenodd" xmlns:xlink="http://www.w3.org/1999/xlink">
<g><path style="opacity:1" fill="#fefefe" d="M -0.5,-0.5 C 237.167,-0.5 474.833,-0.5 712.5,-0.5C 712.5,189.167 712.5,378.833 712.5,568.5C 474.833,568.5 237.167,568.5 -0.5,568.5C -0.5,378.833 -0.5,189.167 -0.5,-0.5 Z"/></g>
<g><path style="opacity:1" fill="#040404" d="M 300.5,127.5 C 299.833,126.833 299.167,126.167 298.5,125.5C 297.031,121.932 294.864,121.598 292,124.5C 292.533,120.628 294.7,119.628 298.5,121.5C 301.288,114.395 299.288,109.229 292.5,106C 278.152,98.6987 263.819,98.6987 249.5,106C 247.667,107.833 245.833,109.667 244,111.5C 239.347,119.816 234.514,127.982 229.5,136C 228.056,136.781 226.723,136.614 225.5,135.5C 223.506,131.176 220.173,129.509 215.5,130.5C 215.167,130.5 214.833,130.5 214.5,130.5C 212.53,123.616 211.03,116.616 210,109.5C 209.146,105.375 209.48,101.375 211,97.5C 229.45,80.092 251.283,73.2587 276.5,77C 291.804,82.3063 303.471,91.973 311.5,106C 308.794,109.905 305.961,113.738 303,117.5C 300.994,120.536 300.16,123.869 300.5,127.5 Z"/></g>
<g><path style="opacity:1" fill="#eabca2" d="M 298.5,125.5 C 298.193,136.839 297.693,148.172 297,159.5C 296.392,166.986 295.059,174.319 293,181.5C 285.6,190.404 276.1,193.571 264.5,191C 261.804,190.235 259.304,189.068 257,187.5C 256.833,187.833 256.667,188.167 256.5,188.5C 264.968,193.811 273.968,194.811 283.5,191.5C 283.194,194.385 283.527,197.052 284.5,199.5C 284.663,201.857 284.497,204.19 284,206.5C 280.962,210.871 277.295,214.538 273,217.5C 257.508,212.724 242.008,208.057 226.5,203.5C 225.833,202.833 225.167,202.167 224.5,201.5C 223.44,186.115 221.94,170.782 220,155.5C 209.609,151.562 206.609,144.562 211,134.5C 212.397,132.93 213.897,131.596 215.5,130.5C 220.173,129.509 223.506,131.176 225.5,135.5C 226.723,136.614 228.056,136.781 229.5,136C 234.514,127.982 239.347,119.816 244,111.5C 245.833,109.667 247.667,107.833 249.5,106C 263.819,98.6987 278.152,98.6987 292.5,106C 299.288,109.229 301.288,114.395 298.5,121.5C 294.7,119.628 292.533,120.628 292,124.5C 294.864,121.598 297.031,121.932 298.5,125.5 Z"/></g>
<g><path style="opacity:1" fill="#28211d" d="M 268.5,119.5 C 271.794,119.259 274.794,120.092 277.5,122C 280.085,125.837 279.751,126.171 276.5,123C 274.801,122.042 272.967,121.542 271,121.5C 267.895,122.34 265.062,123.506 262.5,125C 264.396,122.932 266.396,121.099 268.5,119.5 Z"/></g>
<g><path style="opacity:1" fill="#1b1715" d="M 269.5,137.5 C 270.833,137.5 272.167,137.5 273.5,137.5C 273.5,138.833 273.5,140.167 273.5,141.5C 272.167,141.5 270.833,141.5 269.5,141.5C 269.5,140.167 269.5,138.833 269.5,137.5 Z"/></g>
<g><path style="opacity:1" fill="#1b1614" d="M 292.5,137.5 C 295.166,137.066 296.333,138.066 296,140.5C 292.403,142.066 291.237,141.066 292.5,137.5 Z"/></g>
<g><path style="opacity:1" fill="#2a231f" d="M 286.5,130.5 C 288.206,136.246 289.373,142.246 290,148.5C 290.667,151.5 290.667,154.5 290,157.5C 284.76,158.468 280.926,156.468 278.5,151.5C 278.667,151.167 278.833,150.833 279,150.5C 281.331,154.029 284.497,156.029 288.5,156.5C 287.833,147.833 287.167,139.167 286.5,130.5 Z"/></g>
<g><path style="opacity:1" fill="#252123" d="M 214.5,130.5 C 214.833,130.5 215.167,130.5 215.5,130.5C 213.897,131.596 212.397,132.93 211,134.5C 206.609,144.562 209.609,151.562 220,155.5C 221.94,170.782 223.44,186.115 224.5,201.5C 223.833,201.833 223.167,202.167 222.5,202.5C 221.829,187.101 220.495,171.768 218.5,156.5C 209.469,152.772 205.969,146.105 208,136.5C 209.406,133.591 211.572,131.591 214.5,130.5 Z"/></g>
<g><path style="opacity:1" fill="#241e1b" d="M 263.5,164.5 C 266.146,168.874 270.146,170.708 275.5,170C 269.369,172.767 265.369,170.934 263.5,164.5 Z"/></g>
<g><path style="opacity:1" fill="#2e292a" d="M 298.5,125.5 C 299.167,126.167 299.833,126.833 300.5,127.5C 300.19,144.61 298.69,161.61 296,178.5C 294.114,183.718 290.781,187.718 286,190.5C 285.51,191.793 285.343,193.127 285.5,194.5C 284.549,195.919 284.216,197.585 284.5,199.5C 283.527,197.052 283.194,194.385 283.5,191.5C 273.968,194.811 264.968,193.811 256.5,188.5C 256.667,188.167 256.833,187.833 257,187.5C 259.304,189.068 261.804,190.235 264.5,191C 276.1,193.571 285.6,190.404 293,181.5C 295.059,174.319 296.392,166.986 297,159.5C 297.693,148.172 298.193,136.839 298.5,125.5 Z"/></g>
<g><path style="opacity:1" fill="#1b1d25" d="M 644.5,392.5 C 644.5,391.833 644.167,391.5 643.5,391.5C 643.5,324.5 643.5,257.5 643.5,190.5C 558.167,190.5 472.833,190.5 387.5,190.5C 387.5,257.5 387.5,324.5 387.5,391.5C 386.833,391.5 386.5,391.833 386.5,392.5C 385.501,347.003 385.168,301.336 385.5,255.5C 385.5,233.5 385.5,211.5 385.5,189.5C 472.167,189.5 558.833,189.5 645.5,189.5C 645.833,257.335 645.499,325.002 644.5,392.5 Z"/></g>
<g><path style="opacity:1" fill="#fdfdfd" d="M 643.5,391.5 C 558.167,391.5 472.833,391.5 387.5,391.5C 387.5,324.5 387.5,257.5 387.5,190.5C 472.833,190.5 558.167,190.5 643.5,190.5C 643.5,257.5 643.5,324.5 643.5,391.5 Z"/></g>
<g><path style="opacity:1" fill="#3e5ab1" d="M 294.5,210.5 C 331.486,212.494 361.819,227.494 385.5,255.5C 385.168,301.336 385.501,347.003 386.5,392.5C 401.402,393.182 416.402,393.848 431.5,394.5C 433.524,401.313 434.691,408.313 435,415.5C 435.733,430.851 435.566,446.185 434.5,461.5C 429.167,461.5 423.833,461.5 418.5,461.5C 418.5,455.5 418.5,449.5 418.5,443.5C 418.344,440.159 417.011,437.326 414.5,435C 406.996,428.742 398.662,423.742 389.5,420C 384.676,418.594 380.676,419.76 377.5,423.5C 376.122,411.357 373.956,399.357 371,387.5C 367.271,377.046 363.271,366.712 359,356.5C 357.838,350.555 357.338,344.555 357.5,338.5C 357.071,323.5 356.571,308.5 356,293.5C 355.171,312.671 355.338,331.671 356.5,350.5C 356.547,353.568 357.047,356.568 358,359.5C 369.016,381.209 374.683,404.209 375,428.5C 370.748,436.922 367.082,445.588 364,454.5C 363.444,456.885 363.61,459.218 364.5,461.5C 353.321,461.828 342.321,461.495 331.5,460.5C 332.302,459.048 332.802,457.382 333,455.5C 336.166,460.441 340.166,461.441 345,458.5C 345.136,446.238 341.636,435.072 334.5,425C 319.245,419.457 303.912,419.124 288.5,424C 284.241,425.934 280.241,428.268 276.5,431C 272.311,431.812 268.311,431.645 264.5,430.5C 264.713,423.826 265.046,417.159 265.5,410.5C 234.44,409.328 203.44,407.328 172.5,404.5C 173.143,399.399 174.309,394.399 176,389.5C 182.33,369.844 188.663,350.178 195,330.5C 199.991,314.023 199.658,297.69 194,281.5C 186.503,265.354 174.003,256.521 156.5,255C 177.486,259.32 190.652,271.82 196,292.5C 197.036,304.605 196.369,316.605 194,328.5C 185.453,353.64 177.62,378.973 170.5,404.5C 165.488,404.08 160.488,403.913 155.5,404C 181.376,407.493 207.376,409.659 233.5,410.5C 230.138,431.678 226.471,452.678 222.5,473.5C 190.498,473.667 158.498,473.5 126.5,473C 97.3819,465.123 84.7153,446.123 88.5,416C 87.7171,377.196 94.2171,339.696 108,303.5C 123.709,263.125 151.542,234.625 191.5,218C 200.222,214.736 209.222,212.902 218.5,212.5C 232.984,223.249 247.317,234.249 261.5,245.5C 265.833,237.5 270.167,229.5 274.5,221.5C 280.167,228.167 285.833,234.833 291.5,241.5C 292.912,231.202 293.912,220.869 294.5,210.5 Z"/></g>
<g><path style="opacity:1" fill="#11121d" d="M 285.5,194.5 C 285.335,197.85 285.502,201.183 286,204.5C 286.718,203.549 287.551,203.383 288.5,204C 290.756,206.083 292.756,208.25 294.5,210.5C 293.912,220.869 292.912,231.202 291.5,241.5C 285.833,234.833 280.167,228.167 274.5,221.5C 270.167,229.5 265.833,237.5 261.5,245.5C 247.317,234.249 232.984,223.249 218.5,212.5C 219.833,209.167 221.167,205.833 222.5,202.5C 223.167,202.167 223.833,201.833 224.5,201.5C 225.167,202.167 225.833,202.833 226.5,203.5C 242.008,208.057 257.508,212.724 273,217.5C 277.295,214.538 280.962,210.871 284,206.5C 284.497,204.19 284.663,201.857 284.5,199.5C 284.216,197.585 284.549,195.919 285.5,194.5 Z"/></g>
<g><path style="opacity:1" fill="#3c58ad" d="M 286.5,205.5 C 288.716,206.203 290.549,207.536 292,209.5C 292.405,219.239 291.738,228.905 290,238.5C 285.532,231.732 280.699,225.232 275.5,219C 279.379,214.626 283.046,210.126 286.5,205.5 Z"/></g>
<g><path style="opacity:1" fill="#3c59ae" d="M 226.5,203.5 C 241.49,209.048 256.656,214.382 272,219.5C 269.473,227.895 265.807,235.895 261,243.5C 247.847,232.925 234.514,222.592 221,212.5C 220.915,209.639 221.749,206.972 223.5,204.5C 224.325,203.614 225.325,203.281 226.5,203.5 Z"/></g>
<g><path style="opacity:1" fill="#0a0a0a" d="M 437.5,262.5 C 446.546,262.236 455.546,262.736 464.5,264C 471.702,265.869 476.202,270.369 478,277.5C 478.667,287.833 478.667,298.167 478,308.5C 476.053,316.114 471.22,320.614 463.5,322C 453.167,322.667 442.833,322.667 432.5,322C 426.03,319.203 422.197,314.37 421,307.5C 420.333,296.833 420.333,286.167 421,275.5C 424.003,267.924 429.503,263.59 437.5,262.5 Z"/></g>
<g><path style="opacity:1" fill="#f4f4f4" d="M 441.5,271.5 C 462.982,269.482 472.482,279.148 470,300.5C 462.442,315.072 451.275,318.572 436.5,311C 423.218,295.932 424.885,282.765 441.5,271.5 Z"/></g>
<g><path style="opacity:1" fill="#1a1a1a" d="M 520.5,275.5 C 523.238,274.965 525.072,275.965 526,278.5C 526.755,288.201 526.588,297.868 525.5,307.5C 523.549,307.773 522.049,307.107 521,305.5C 520.5,295.506 520.334,285.506 520.5,275.5 Z"/></g>
<g><path style="opacity:1" fill="#0c0c0c" d="M 532.5,275.5 C 534.144,275.286 535.644,275.62 537,276.5C 537.667,286.5 537.667,296.5 537,306.5C 535.667,307.833 534.333,307.833 533,306.5C 532.5,296.172 532.334,285.839 532.5,275.5 Z"/></g>
<g><path style="opacity:1" fill="#1f1f1f" d="M 609.5,277.5 C 611.167,277.5 612.833,277.5 614.5,277.5C 614.962,282.244 613.462,283.244 610,280.5C 609.517,279.552 609.351,278.552 609.5,277.5 Z"/></g>
<g><path style="opacity:1" fill="#0f0f0f" d="M 444.5,281.5 C 455.203,280.385 460.703,285.052 461,295.5C 458.041,303.23 452.541,306.063 444.5,304C 435.235,296.405 435.235,288.905 444.5,281.5 Z"/></g>
<g><path style="opacity:1" fill="#171717" d="M 499.5,285.5 C 502.85,285.335 506.183,285.502 509.5,286C 510.931,286.465 512.097,287.299 513,288.5C 514.329,295.092 514.829,301.759 514.5,308.5C 511.91,308.604 509.577,307.937 507.5,306.5C 502.294,309.623 497.794,308.956 494,304.5C 493.333,302.833 493.333,301.167 494,299.5C 498.499,296.165 503.332,293.832 508.5,292.5C 507.473,290.976 505.973,290.309 504,290.5C 500.915,291.749 497.749,292.749 494.5,293.5C 494.536,289.8 496.203,287.133 499.5,285.5 Z"/></g>
<g><path style="opacity:1" fill="#161616" d="M 548.5,285.5 C 556.367,283.756 561.367,286.589 563.5,294C 563.441,295.436 563.108,296.769 562.5,298C 558.5,298.333 554.5,298.667 550.5,299C 549.252,302.034 550.419,303.534 554,303.5C 557.112,302.517 560.278,301.85 563.5,301.5C 563.201,304.642 561.534,306.809 558.5,308C 546.718,309.552 541.552,304.385 543,292.5C 544.666,290.004 546.5,287.671 548.5,285.5 Z"/></g>
<g><path style="opacity:1" fill="#151515" d="M 587.5,285.5 C 590.85,285.335 594.183,285.502 597.5,286C 599.329,286.273 600.829,287.107 602,288.5C 603.42,295.05 603.92,301.716 603.5,308.5C 601.334,308.421 599.334,307.754 597.5,306.5C 592.682,309.499 588.182,309.166 584,305.5C 583.231,302.901 583.398,300.401 584.5,298C 589.075,296.473 593.409,294.64 597.5,292.5C 596.473,290.976 594.973,290.309 593,290.5C 590.103,291.463 587.27,292.297 584.5,293C 583.483,291.951 583.316,290.784 584,289.5C 585.376,288.295 586.542,286.962 587.5,285.5 Z"/></g>
<g><path style="opacity:1" fill="#141414" d="M 610.5,285.5 C 611.822,285.33 612.989,285.663 614,286.5C 614.667,293.167 614.667,299.833 614,306.5C 612.644,307.38 611.144,307.714 609.5,307.5C 609.203,300.08 609.536,292.746 610.5,285.5 Z"/></g>
<g><path style="opacity:1" fill="#ebebeb" d="M 447.5,287.5 C 455.698,288.786 457.031,292.286 451.5,298C 446.246,298.371 444.079,295.871 445,290.5C 446.045,289.627 446.878,288.627 447.5,287.5 Z"/></g>
<g><path style="opacity:1" fill="#e0e0e0" d="M 550.5,290.5 C 553.908,289.828 556.575,290.828 558.5,293.5C 555.167,294.833 551.833,294.833 548.5,293.5C 549.193,292.482 549.859,291.482 550.5,290.5 Z"/></g>
<g><path style="opacity:1" fill="#151515" d="M 567.5,294.5 C 571.5,294.5 575.5,294.5 579.5,294.5C 579.67,295.822 579.337,296.989 578.5,298C 575.167,298.667 571.833,298.667 568.5,298C 567.663,296.989 567.33,295.822 567.5,294.5 Z"/></g>
<g><path style="opacity:1" fill="#e9e9e9" d="M 504.5,297.5 C 505.833,297.5 507.167,297.5 508.5,297.5C 508.356,302.813 505.69,304.979 500.5,304C 499.978,303.439 499.645,302.772 499.5,302C 500.761,300.038 502.428,298.538 504.5,297.5 Z"/></g>
<g><path style="opacity:1" fill="#e1e1e1" d="M 593.5,297.5 C 594.833,297.5 596.167,297.5 597.5,297.5C 597.998,303.499 595.331,305.666 589.5,304C 588.978,303.439 588.645,302.772 588.5,302C 589.43,299.565 591.097,298.065 593.5,297.5 Z"/></g>
<g><path style="opacity:1" fill="#161c34" d="M 357.5,338.5 C 356.517,342.298 356.183,346.298 356.5,350.5C 355.338,331.671 355.171,312.671 356,293.5C 356.571,308.5 357.071,323.5 357.5,338.5 Z"/></g>
<g><path style="opacity:1" fill="#0a0a0d" d="M 386.5,392.5 C 386.5,391.833 386.833,391.5 387.5,391.5C 472.833,391.5 558.167,391.5 643.5,391.5C 644.167,391.5 644.5,391.833 644.5,392.5C 604.337,393.499 564.003,393.832 523.5,393.5C 524.134,407.508 524.967,421.508 526,435.5C 526.467,440.581 528.634,444.748 532.5,448C 537.534,450.789 542.868,452.789 548.5,454C 557.042,458.583 560.709,465.75 559.5,475.5C 528.593,475.829 497.76,475.496 467,474.5C 467.173,468.609 469.673,463.776 474.5,460C 481.342,456.078 488.342,452.412 495.5,449C 500.234,445.699 503.067,441.199 504,435.5C 505.75,421.488 505.583,407.488 503.5,393.5C 464.67,392.501 425.67,392.168 386.5,392.5 Z"/></g>
<g><path style="opacity:1" fill="#49516e" d="M 386.5,392.5 C 425.67,392.168 464.67,392.501 503.5,393.5C 479.328,393.169 455.328,393.502 431.5,394.5C 416.402,393.848 401.402,393.182 386.5,392.5 Z"/></g>
<g><path style="opacity:1" fill="#121627" d="M 264.5,430.5 C 263.833,430.167 263.167,429.833 262.5,429.5C 263.032,423.848 263.365,418.181 263.5,412.5C 253.928,411.713 244.428,411.713 235,412.5C 231.179,433.093 227.679,453.759 224.5,474.5C 236.178,474.01 247.845,473.344 259.5,472.5C 259.517,464.299 260.183,456.299 261.5,448.5C 261.5,451.5 261.5,454.5 261.5,457.5C 261.387,462.518 261.053,467.518 260.5,472.5C 258.952,473.794 256.952,474.461 254.5,474.5C 243.83,475.202 233.163,475.869 222.5,476.5C 222.5,475.5 222.5,474.5 222.5,473.5C 226.471,452.678 230.138,431.678 233.5,410.5C 207.376,409.659 181.376,407.493 155.5,404C 160.488,403.913 165.488,404.08 170.5,404.5C 177.62,378.973 185.453,353.64 194,328.5C 196.369,316.605 197.036,304.605 196,292.5C 190.652,271.82 177.486,259.32 156.5,255C 174.003,256.521 186.503,265.354 194,281.5C 199.658,297.69 199.991,314.023 195,330.5C 188.663,350.178 182.33,369.844 176,389.5C 174.309,394.399 173.143,399.399 172.5,404.5C 203.44,407.328 234.44,409.328 265.5,410.5C 265.046,417.159 264.713,423.826 264.5,430.5 Z"/></g>
<g><path style="opacity:1" fill="#3d5ab0" d="M 262.5,429.5 C 261.74,435.804 261.407,442.137 261.5,448.5C 260.183,456.299 259.517,464.299 259.5,472.5C 247.845,473.344 236.178,474.01 224.5,474.5C 227.679,453.759 231.179,433.093 235,412.5C 244.428,411.713 253.928,411.713 263.5,412.5C 263.365,418.181 263.032,423.848 262.5,429.5 Z"/></g>
<g><path style="opacity:1" fill="#e8baa0" d="M 331.5,459.5 C 328.131,461.192 325.298,460.526 323,457.5C 320.59,451.682 317.923,446.015 315,440.5C 316.261,445.068 317.594,449.735 319,454.5C 320.848,460.653 318.848,462.653 313,460.5C 310.471,454.579 308.137,448.579 306,442.5C 306.891,448.751 307.391,455.084 307.5,461.5C 305.05,461.702 302.717,461.369 300.5,460.5C 298.533,456.639 296.866,452.639 295.5,448.5C 294.571,449.689 294.238,451.022 294.5,452.5C 288.756,454.969 282.756,456.635 276.5,457.5C 271.873,456.509 267.206,455.843 262.5,455.5C 262.596,447.821 262.93,440.154 263.5,432.5C 272.607,434.125 280.607,431.958 287.5,426C 302.793,420.078 318.126,420.078 333.5,426C 338.826,434.473 342.493,443.639 344.5,453.5C 344.167,457.989 341.833,459.489 337.5,458C 335.383,456.269 333.883,454.102 333,451.5C 331.611,447.056 329.944,442.723 328,438.5C 329.626,445.357 330.792,452.357 331.5,459.5 Z"/></g>
<g><path style="opacity:1" fill="#e6b89f" d="M 417.5,443.5 C 417.5,449.5 417.5,455.5 417.5,461.5C 414.482,461.665 411.482,461.498 408.5,461C 410.606,457.961 412.106,454.795 413,451.5C 410.938,453.901 409.271,456.567 408,459.5C 406.89,461.037 405.39,461.703 403.5,461.5C 403.598,456.393 404.098,451.393 405,446.5C 402.365,451.298 399.532,455.965 396.5,460.5C 394.604,461.466 392.604,461.799 390.5,461.5C 392.085,455.355 393.918,449.355 396,443.5C 392.692,449.95 388.526,455.783 383.5,461C 381.866,461.494 380.199,461.66 378.5,461.5C 379.767,453.704 382.433,446.37 386.5,439.5C 386.167,439.167 385.833,438.833 385.5,438.5C 381,445.5 376.5,452.5 372,459.5C 370.556,461.155 368.722,461.822 366.5,461.5C 365.269,455.637 366.102,449.97 369,444.5C 372.027,436.271 376.194,428.771 381.5,422C 384.5,421.333 387.5,421.333 390.5,422C 398.842,425.833 406.508,430.667 413.5,436.5C 415.616,438.4 416.949,440.733 417.5,443.5 Z"/></g>
<g><path style="opacity:1" fill="#161418" d="M 331.5,460.5 C 331.5,460.167 331.5,459.833 331.5,459.5C 330.792,452.357 329.626,445.357 328,438.5C 329.944,442.723 331.611,447.056 333,451.5C 333.883,454.102 335.383,456.269 337.5,458C 341.833,459.489 344.167,457.989 344.5,453.5C 342.493,443.639 338.826,434.473 333.5,426C 318.126,420.078 302.793,420.078 287.5,426C 280.607,431.958 272.607,434.125 263.5,432.5C 262.93,440.154 262.596,447.821 262.5,455.5C 267.206,455.843 271.873,456.509 276.5,457.5C 282.756,456.635 288.756,454.969 294.5,452.5C 294.238,451.022 294.571,449.689 295.5,448.5C 296.866,452.639 298.533,456.639 300.5,460.5C 300.167,460.5 299.833,460.5 299.5,460.5C 297.552,458.68 296.552,456.346 296.5,453.5C 291.752,454.705 287.085,456.205 282.5,458C 275.501,458.228 268.501,458.061 261.5,457.5C 261.5,454.5 261.5,451.5 261.5,448.5C 261.407,442.137 261.74,435.804 262.5,429.5C 263.167,429.833 263.833,430.167 264.5,430.5C 268.311,431.645 272.311,431.812 276.5,431C 280.241,428.268 284.241,425.934 288.5,424C 303.912,419.124 319.245,419.457 334.5,425C 341.636,435.072 345.136,446.238 345,458.5C 340.166,461.441 336.166,460.441 333,455.5C 332.802,457.382 332.302,459.048 331.5,460.5 Z"/></g>
<g><path style="opacity:1" fill="#15151f" d="M 357.5,338.5 C 357.338,344.555 357.838,350.555 359,356.5C 363.271,366.712 367.271,377.046 371,387.5C 373.956,399.357 376.122,411.357 377.5,423.5C 380.676,419.76 384.676,418.594 389.5,420C 398.662,423.742 406.996,428.742 414.5,435C 417.011,437.326 418.344,440.159 418.5,443.5C 418.167,443.5 417.833,443.5 417.5,443.5C 416.949,440.733 415.616,438.4 413.5,436.5C 406.508,430.667 398.842,425.833 390.5,422C 387.5,421.333 384.5,421.333 381.5,422C 376.194,428.771 372.027,436.271 369,444.5C 366.102,449.97 365.269,455.637 366.5,461.5C 365.833,461.5 365.167,461.5 364.5,461.5C 363.61,459.218 363.444,456.885 364,454.5C 367.082,445.588 370.748,436.922 375,428.5C 374.683,404.209 369.016,381.209 358,359.5C 357.047,356.568 356.547,353.568 356.5,350.5C 356.183,346.298 356.517,342.298 357.5,338.5 Z"/></g>
<g><path style="opacity:1" fill="#030303" d="M 417.5,443.5 C 417.833,443.5 418.167,443.5 418.5,443.5C 418.5,449.5 418.5,455.5 418.5,461.5C 423.833,461.5 429.167,461.5 434.5,461.5C 436.833,461.5 439.167,461.5 441.5,461.5C 441.5,465.833 441.5,470.167 441.5,474.5C 386.167,474.5 330.833,474.5 275.5,474.5C 275.5,470.167 275.5,465.833 275.5,461.5C 283.684,461.826 291.684,461.492 299.5,460.5C 299.833,460.5 300.167,460.5 300.5,460.5C 302.717,461.369 305.05,461.702 307.5,461.5C 307.391,455.084 306.891,448.751 306,442.5C 308.137,448.579 310.471,454.579 313,460.5C 318.848,462.653 320.848,460.653 319,454.5C 317.594,449.735 316.261,445.068 315,440.5C 317.923,446.015 320.59,451.682 323,457.5C 325.298,460.526 328.131,461.192 331.5,459.5C 331.5,459.833 331.5,460.167 331.5,460.5C 342.321,461.495 353.321,461.828 364.5,461.5C 365.167,461.5 365.833,461.5 366.5,461.5C 368.722,461.822 370.556,461.155 372,459.5C 376.5,452.5 381,445.5 385.5,438.5C 385.833,438.833 386.167,439.167 386.5,439.5C 382.433,446.37 379.767,453.704 378.5,461.5C 380.199,461.66 381.866,461.494 383.5,461C 388.526,455.783 392.692,449.95 396,443.5C 393.918,449.355 392.085,455.355 390.5,461.5C 392.604,461.799 394.604,461.466 396.5,460.5C 399.532,455.965 402.365,451.298 405,446.5C 404.098,451.393 403.598,456.393 403.5,461.5C 405.39,461.703 406.89,461.037 408,459.5C 409.271,456.567 410.938,453.901 413,451.5C 412.106,454.795 410.606,457.961 408.5,461C 411.482,461.498 414.482,461.665 417.5,461.5C 417.5,455.5 417.5,449.5 417.5,443.5 Z"/></g>
<g><path style="opacity:1" fill="#3b57ab" d="M 299.5,460.5 C 291.684,461.492 283.684,461.826 275.5,461.5C 274.518,464.962 274.185,468.629 274.5,472.5C 269.833,472.5 265.167,472.5 260.5,472.5C 261.053,467.518 261.387,462.518 261.5,457.5C 268.501,458.061 275.501,458.228 282.5,458C 287.085,456.205 291.752,454.705 296.5,453.5C 296.552,456.346 297.552,458.68 299.5,460.5 Z"/></g>
<g><path style="opacity:1" fill="#3852a1" d="M 376.5,454.5 C 377.103,456.626 377.103,458.959 376.5,461.5C 375.127,461.657 373.793,461.49 372.5,461C 374.058,458.948 375.392,456.781 376.5,454.5 Z"/></g>
<g><path style="opacity:1" fill="#2d4282" d="M 308.5,455.5 C 309.725,456.937 310.725,458.604 311.5,460.5C 310.675,461.386 309.675,461.719 308.5,461.5C 308.5,459.5 308.5,457.5 308.5,455.5 Z"/></g>
<g><path style="opacity:1" fill="#30478b" d="M 320.5,457.5 C 325.195,460.025 325.195,461.358 320.5,461.5C 320.5,460.167 320.5,458.833 320.5,457.5 Z"/></g>
<g><path style="opacity:1" fill="#30468b" d="M 388.5,457.5 C 389.434,458.568 389.768,459.901 389.5,461.5C 388.127,461.657 386.793,461.49 385.5,461C 386.71,459.961 387.71,458.794 388.5,457.5 Z"/></g>
<g><path style="opacity:1" fill="#354e99" d="M 400.5,456.5 C 401.451,457.919 401.784,459.585 401.5,461.5C 400.127,461.657 398.793,461.49 397.5,461C 398.883,459.729 399.883,458.229 400.5,456.5 Z"/></g>
<g><path style="opacity:1" fill="#30374d" d="M 275.5,461.5 C 275.5,465.833 275.5,470.167 275.5,474.5C 330.833,474.5 386.167,474.5 441.5,474.5C 386.002,475.499 330.336,475.832 274.5,475.5C 274.5,474.5 274.5,473.5 274.5,472.5C 274.185,468.629 274.518,464.962 275.5,461.5 Z"/></g>
</svg>
