<?xml version="1.0" standalone="no"?>
<!DOCTYPE svg PUBLIC "-//W3C//DTD SVG 20010904//EN"
 "http://www.w3.org/TR/2001/REC-SVG-20010904/DTD/svg10.dtd">
<svg version="1.0" xmlns="http://www.w3.org/2000/svg"
 width="91.000000pt" height="91.000000pt" viewBox="0 0 91.000000 91.000000"
 preserveAspectRatio="xMidYMid meet">

<g transform="translate(0.000000,91.000000) scale(0.100000,-0.100000)"
fill="#000000" stroke="none">
<path d="M235 867 c-97 -26 -139 -59 -177 -142 -22 -47 -23 -61 -23 -270 0
-250 5 -274 69 -343 59 -65 101 -80 242 -88 142 -7 361 9 401 30 46 23 111
100 124 148 17 60 17 437 0 498 -17 58 -100 143 -156 159 -62 18 -419 24 -480
8z m372 -137 c187 -92 227 -355 76 -506 -58 -58 -134 -88 -223 -89 -66 0 -85
5 -142 33 -70 34 -107 73 -149 152 -19 36 -23 61 -23 125 0 158 84 270 233
312 68 19 155 9 228 -27z"/>
<path d="M390 608 c-60 -31 -103 -100 -102 -164 1 -91 81 -164 179 -164 121 0
204 147 142 250 -26 42 -41 55 -94 80 -52 25 -71 25 -125 -2z m124 -109 c14
-17 26 -39 26 -49 0 -27 -48 -80 -73 -80 -37 1 -77 45 -77 85 0 23 54 75 78
75 11 0 32 -14 46 -31z"/>
</g>
</svg>
