<?xml version="1.0" standalone="no"?>
<!DOCTYPE svg PUBLIC "-//W3C//DTD SVG 20010904//EN"
 "http://www.w3.org/TR/2001/REC-SVG-20010904/DTD/svg10.dtd">
<svg version="1.0" xmlns="http://www.w3.org/2000/svg"
 width="232.000000pt" height="68.000000pt" viewBox="0 0 232.000000 68.000000"
 preserveAspectRatio="xMidYMid meet">

<g transform="translate(0.000000,68.000000) scale(0.100000,-0.100000)"
fill="#000000" stroke="none">
<path d="M213 650 c-103 -14 -151 -51 -175 -134 -16 -55 -15 -299 1 -355 16
-57 65 -106 122 -122 58 -16 300 -16 358 0 57 16 106 65 122 122 17 58 17 300
0 358 -16 56 -64 105 -116 120 -55 15 -237 22 -312 11z m215 -96 c153 -63 191
-267 71 -381 -146 -138 -388 -36 -389 165 0 130 99 231 228 232 29 0 69 -7 90
-16z"/>
<path d="M305 463 c-29 -7 -66 -43 -82 -82 -48 -113 104 -220 196 -137 75 67
57 173 -36 212 -33 14 -43 15 -78 7z m75 -83 c11 -11 20 -29 20 -40 0 -22 -33
-60 -53 -60 -27 0 -57 31 -57 60 0 18 8 34 22 44 30 21 44 20 68 -4z"/>
<path d="M1107 523 c-4 -3 -7 -80 -7 -170 0 -137 2 -165 15 -169 8 -4 22 -1
30 6 12 10 15 41 15 157 0 80 -5 153 -10 164 -11 19 -31 25 -43 12z"/>
<path d="M1224 517 c-2 -7 -3 -85 -2 -172 3 -147 4 -160 22 -163 10 -2 22 2
27 10 14 21 11 312 -3 326 -16 16 -37 15 -44 -1z"/>
<path d="M2046 494 c-9 -22 17 -49 39 -40 10 3 15 15 13 28 -4 29 -42 37 -52
12z"/>
<path d="M846 399 c-14 -11 -26 -29 -26 -40 0 -29 28 -35 51 -10 25 26 84 29
93 4 7 -17 -9 -33 -34 -33 -30 0 -90 -21 -105 -36 -23 -23 -19 -70 7 -88 27
-19 77 -21 113 -4 19 9 28 9 37 0 13 -13 45 -16 51 -4 2 4 1 49 -3 101 -6 81
-10 97 -29 113 -33 26 -120 25 -155 -3z m124 -126 c-1 -42 -54 -72 -86 -48
-34 25 3 57 74 64 6 0 12 -7 12 -16z"/>
<path d="M1394 410 c-72 -29 -82 -159 -17 -210 46 -36 150 -23 173 21 18 33
-3 48 -39 26 -49 -29 -111 -18 -111 20 0 8 23 13 78 15 75 3 77 4 80 30 4 36
-23 87 -54 98 -31 12 -81 12 -110 0z m100 -62 c15 -24 5 -30 -53 -26 l-52 3
17 23 c19 27 71 27 88 0z"/>
<path d="M1805 408 c-25 -14 -35 -28 -35 -51 0 -27 26 -31 49 -8 24 24 73 28
90 7 15 -18 -2 -31 -54 -41 -69 -12 -95 -31 -95 -69 0 -19 8 -40 18 -49 22
-20 80 -22 117 -5 19 9 28 9 37 0 13 -13 45 -16 51 -4 2 4 0 50 -3 101 -7 81
-11 98 -30 113 -26 21 -113 24 -145 6z m111 -140 c-3 -13 -6 -26 -6 -30 0 -13
-56 -26 -73 -16 -27 15 -21 47 11 54 15 3 32 7 37 9 28 9 37 4 31 -17z"/>
<path d="M2046 405 c-9 -25 -7 -198 3 -213 5 -8 17 -12 27 -10 17 3 19 14 19
118 0 110 -1 115 -21 118 -13 2 -24 -4 -28 -13z"/>
<path d="M1596 321 c-4 -5 -3 -16 0 -25 5 -12 20 -16 58 -16 54 0 78 13 69 36
-6 16 -118 20 -127 5z"/>
</g>
</svg>
